<?xml version="1.0" encoding="utf-8"?>
<!-- Generator: Adobe Illustrator 25.4.1, SVG Export Plug-In . SVG Version: 6.00 Build 0)  -->
<svg version="1.1" id="레이어_1" xmlns="http://www.w3.org/2000/svg" xmlns:xlink="http://www.w3.org/1999/xlink" x="0px"
	 y="0px" viewBox="0 0 99.19 66.27" style="enable-background:new 0 0 99.19 66.27;" xml:space="preserve">
<style type="text/css">
	.st0{fill:url(#SVGID_1_);}
</style>
<linearGradient id="SVGID_1_" gradientUnits="userSpaceOnUse" x1="1.7252" y1="41.239" x2="94.4282" y2="18.8445">
	<stop  offset="0" style="stop-color:#E06A36"/>
	<stop  offset="0.0581" style="stop-color:#E17134"/>
	<stop  offset="0.145" style="stop-color:#E5862F"/>
	<stop  offset="0.2495" style="stop-color:#EBA726"/>
	<stop  offset="0.2956" style="stop-color:#EEB822"/>
	<stop  offset="0.3311" style="stop-color:#E7B825"/>
	<stop  offset="0.3844" style="stop-color:#D2B72E"/>
	<stop  offset="0.4488" style="stop-color:#B1B53C"/>
	<stop  offset="0.5212" style="stop-color:#83B34F"/>
	<stop  offset="0.5544" style="stop-color:#6BB259"/>
	<stop  offset="0.5881" style="stop-color:#65AE5E"/>
	<stop  offset="0.6313" style="stop-color:#55A16B"/>
	<stop  offset="0.6797" style="stop-color:#3B8D80"/>
	<stop  offset="0.7315" style="stop-color:#17719E"/>
	<stop  offset="0.7497" style="stop-color:#0866AA"/>
	<stop  offset="1" style="stop-color:#7366A5"/>
</linearGradient>
<path class="st0" d="M99.06,32.87l-5.37-13.22c0-0.01-0.01-0.01-0.01-0.02c-0.01-0.01-0.01-0.03-0.01-0.04
	c-0.06-0.14-0.15-0.27-0.24-0.39c-0.02-0.03-0.05-0.05-0.07-0.08c-0.1-0.11-0.2-0.21-0.32-0.29c-0.02-0.01-0.03-0.03-0.04-0.04
	L66.91,1.27c-0.02-0.01-0.04-0.02-0.06-0.03c-0.03-0.02-0.06-0.05-0.1-0.07c-0.09-0.05-0.19-0.09-0.28-0.12
	c-0.02-0.01-0.04-0.02-0.05-0.02c-0.15-0.05-0.31-0.07-0.47-0.08c-0.02,0-0.03-0.01-0.05-0.01L26.02,0C26.01,0,26,0.01,25.98,0.01
	c-0.19,0-0.39,0.03-0.57,0.09c-0.02,0.01-0.04,0.02-0.07,0.02c-0.19,0.07-0.37,0.16-0.53,0.29c0,0-0.01,0-0.01,0.01L5.61,15.67
	c-0.02,0.02-0.03,0.04-0.05,0.05c-0.09,0.08-0.17,0.16-0.25,0.26C5.29,16,5.26,16.03,5.24,16.06c-0.09,0.12-0.16,0.25-0.22,0.4
	c0,0.01-0.01,0.01-0.01,0.02L0.12,29.32c-0.14,0.36-0.16,0.75-0.07,1.13l6.64,26.93c0,0.02,0.01,0.03,0.02,0.05
	c0.04,0.14,0.09,0.27,0.16,0.39c0.02,0.04,0.04,0.07,0.06,0.1C7,58.05,7.09,58.17,7.2,58.27c0.01,0.01,0.01,0.02,0.02,0.02
	c0,0,0,0,0.01,0.01c0.12,0.11,0.24,0.2,0.38,0.27c0.03,0.02,0.06,0.03,0.1,0.05c0.13,0.06,0.27,0.12,0.41,0.15
	c0.01,0,0.02,0.01,0.03,0.01l0.03,0.01l0.01,0l35.99,7.44c0.13,0.03,0.26,0.04,0.38,0.04c0.71,0,1.38-0.4,1.7-1.06l6.27-12.83
	l16.06,4.72c0.14,0.04,0.3,0.06,0.44,0.06c0.03,0,0.06,0.01,0.09,0.01c0,0,0,0,0.01,0c0.05,0,0.1-0.02,0.15-0.02
	c0.12-0.01,0.24-0.02,0.35-0.05c0.01,0,0.02-0.01,0.03-0.01c0.01,0,0.02,0,0.02,0l18.88-5.96c0.44-0.14,0.82-0.44,1.06-0.84
	l9.29-15.74C99.23,34.04,99.28,33.42,99.06,32.87z M36.35,15.05c-0.61-2.02-2.47-3.5-4.68-3.5c-2.71,0-4.92,2.2-4.92,4.92
	s2.2,4.92,4.92,4.92c1.85,0,3.45-1.04,4.29-2.56l7.09,0.22L32.67,31.31l-14.21-2.07l8.86-25.42l35.4,0.84l-5.96,11.03L36.35,15.05z
	 M33.38,16.47c0,0.94-0.77,1.71-1.71,1.71c-0.94,0-1.71-0.77-1.71-1.71c0-0.72,0.45-1.33,1.07-1.59c0.2-0.08,0.41-0.13,0.64-0.13
	c0.26,0,0.51,0.06,0.73,0.17C32.97,15.21,33.38,15.79,33.38,16.47z M22.04,7.44l-6.67,19.13l-6.04-9.03L22.04,7.44z M43.5,62.22
	l-31.25-6.46l8.58-9.04l11.97-2.1l-1.09,3.56c-2.39,0.33-4.24,2.37-4.24,4.85c0,2.71,2.2,4.92,4.92,4.92s4.92-2.2,4.92-4.92
	c0-1.58-0.76-2.98-1.93-3.88l1.29-4.25L49,50.98L43.5,62.22z M30.67,53.03c0-0.94,0.77-1.71,1.71-1.71s1.71,0.77,1.71,1.71
	c0,0.07-0.01,0.15-0.02,0.22c-0.11,0.84-0.82,1.49-1.69,1.49c-0.85,0-1.55-0.62-1.68-1.43C30.69,53.22,30.67,53.13,30.67,53.03z
	 M52.22,48.34l-15.88-7.82c-0.01-0.01-0.02-0.01-0.03-0.01c-0.08-0.04-0.17-0.07-0.25-0.09c-0.04-0.01-0.07-0.03-0.11-0.04
	c-0.13-0.03-0.25-0.05-0.38-0.05c-0.04,0-0.08,0.01-0.13,0.01c-0.08,0-0.17,0-0.25,0.02l-0.03,0.01l0,0l-14.69,2.58l-2.53-2.23
	c0.24-0.57,0.37-1.2,0.37-1.86c0-2.71-2.2-4.92-4.92-4.92c-2.71,0-4.91,2.2-4.91,4.92s2.2,4.92,4.91,4.92
	c0.66,0,1.29-0.13,1.86-0.37l1.92,1.69l-7.62,8.02l-5.67-23l3.38-8.87l7.09,10.59c0.01,0.01,0.02,0.02,0.03,0.03
	c0.05,0.07,0.1,0.13,0.16,0.19c0.03,0.03,0.06,0.07,0.09,0.1c0.06,0.06,0.13,0.11,0.2,0.16c0.03,0.02,0.06,0.05,0.1,0.07
	c0.07,0.04,0.15,0.08,0.22,0.11c0.04,0.02,0.08,0.04,0.13,0.06c0.01,0,0.01,0.01,0.02,0.01c0.02,0.01,0.03,0,0.05,0.01
	c0.1,0.03,0.2,0.06,0.3,0.08L45.47,37l3.62,3.48c-0.21,0.54-0.33,1.12-0.33,1.74c0,2.71,2.2,4.92,4.92,4.92
	c2.71,0,4.91-2.2,4.91-4.92s-2.2-4.92-4.91-4.92c-0.71,0-1.37,0.16-1.98,0.42l-4.03-3.88c-0.28-0.27-0.65-0.45-1.04-0.51l-9.53-1.39
	L47.87,19.2l9.93,0.31c0.02,0,0.04,0,0.06,0c0.69,0,1.33-0.38,1.67-0.99l6.99-12.95l21.51,14.45L70.5,27.86
	c-0.56,0.25-0.96,0.76-1.08,1.36c-0.12,0.6,0.06,1.22,0.48,1.67l2.72,2.89l-6.13,5.11l-3.17-11.26l4.76-4.56
	c0.6,0.26,1.26,0.41,1.96,0.41c2.71,0,4.92-2.2,4.92-4.92c0-2.71-2.2-4.92-4.92-4.92s-4.92,2.21-4.92,4.92
	c0,0.62,0.13,1.22,0.34,1.77l-5.58,5.35c-0.5,0.48-0.7,1.21-0.51,1.88l4.28,15.21l0,0l2.74,9.73L52.22,48.34z M13.38,40.57
	c-0.94,0-1.71-0.77-1.71-1.71s0.77-1.71,1.71-1.71c0.94,0,1.71,0.77,1.71,1.71c0,0.13-0.02,0.26-0.05,0.39
	c-0.16,0.67-0.7,1.18-1.38,1.3C13.57,40.55,13.47,40.57,13.38,40.57z M55.38,42.22c0,0.94-0.77,1.71-1.71,1.71
	c-0.94,0-1.71-0.77-1.71-1.71c0-0.94,0.77-1.71,1.71-1.71C54.61,40.51,55.38,41.27,55.38,42.22z M81.6,38.31
	c0.94,0,1.71,0.77,1.71,1.71c0,0.94-0.77,1.71-1.71,1.71s-1.71-0.77-1.71-1.71c0-0.24,0.05-0.47,0.14-0.68
	c0.14-0.32,0.37-0.58,0.65-0.76C80.95,38.41,81.26,38.31,81.6,38.31z M70.03,20.28c-0.94,0-1.71-0.77-1.71-1.71
	c0-0.94,0.77-1.71,1.71-1.71c0.94,0,1.71,0.77,1.71,1.71C71.74,19.51,70.98,20.28,70.03,20.28z M86.75,47.73l-16.33,5.16l-2.81-10
	l7.61-6.34l1.77,1.88c-0.18,0.51-0.29,1.04-0.29,1.6c0,2.71,2.2,4.92,4.92,4.92s4.92-2.2,4.92-4.92s-2.2-4.92-4.92-4.92
	c-0.75,0-1.45,0.18-2.09,0.48l-5.04-5.36l16.44-7.34l4.28,10.54L86.75,47.73z"/>
</svg>
